<svg xmlns="http://www.w3.org/2000/svg" xmlns:xlink="http://www.w3.org/1999/xlink" width="40" height="40" viewBox="0 0 40 40">
  <defs>
    <clipPath id="clip-path">
      <rect id="Rectangle_92" data-name="Rectangle 92" width="36.689" height="17.994" fill="#8eacff"/>
    </clipPath>
  </defs>
  <g id="icon-case" transform="translate(-57 -184)">
    <g id="Group_440" data-name="Group 440" transform="translate(58.656 195.703)">
      <g id="Group_439" data-name="Group 439" transform="translate(0 0)" clip-path="url(#clip-path)">
        <path id="Path_481" data-name="Path 481" d="M20.038,14.845a9.03,9.03,0,0,1-1.185-1.469H5.423a3.62,3.62,0,1,1,0-7.241H17.676a9.048,9.048,0,0,1,.677-1.8H5.423a5.423,5.423,0,0,0,0,10.846H20.4c-.123-.111-.25-.217-.367-.334" transform="translate(0 -1.729)" fill="#8eacff"/>
        <path id="Path_482" data-name="Path 482" d="M43.972,11.317h-.813l-.288-.278a6.7,6.7,0,1,0-.72.72l.278.288v.812l5.144,5.134,1.534-1.533Zm-6.173,0a4.63,4.63,0,1,1,4.63-4.63,4.624,4.624,0,0,1-4.63,4.63" transform="translate(-12.416 0)" fill="#8eacff"/>
        <rect id="Rectangle_89" data-name="Rectangle 89" width="2.347" height="2.347" transform="translate(5.212 6.852)" fill="#8eacff"/>
        <rect id="Rectangle_90" data-name="Rectangle 90" width="2.347" height="2.347" transform="translate(9.029 6.852)" fill="#8eacff"/>
        <rect id="Rectangle_91" data-name="Rectangle 91" width="2.347" height="2.347" transform="translate(12.846 6.852)" fill="#8eacff"/>
      </g>
    </g>
    <rect id="Rectangle_100" data-name="Rectangle 100" width="40" height="40" transform="translate(57 184)" fill="none"/>
  </g>
</svg>
