<svg xmlns="http://www.w3.org/2000/svg" xmlns:xlink="http://www.w3.org/1999/xlink" width="36" height="36" viewBox="0 0 36 36">
  <defs>
    <clipPath id="clip-path">
      <rect id="Rectangle_55" data-name="Rectangle 55" width="20.097" height="20.117" fill="#fff"/>
    </clipPath>
  </defs>
  <g id="icon-check" transform="translate(-67 -495)">
    <circle id="Ellipse_24" data-name="Ellipse 24" cx="18" cy="18" r="18" transform="translate(67 495)" fill="#8eacff"/>
    <g id="Group_412" data-name="Group 412" transform="translate(74.951 502.941)">
      <g id="Group_411" data-name="Group 411" clip-path="url(#clip-path)">
        <path id="Path_436" data-name="Path 436" d="M35.464,13.951v4.834c.107.009.187.02.267.02q3.386,0,6.771,0a1.116,1.116,0,0,0,1.21-.873,13.835,13.835,0,0,0,.276-1.979,8.679,8.679,0,0,0-.027-1.127c-.022-.541.222-.783.765-.809.8-.038,1.59-.1,2.384-.16a2.207,2.207,0,0,0,.5-.13,1.277,1.277,0,0,0,1.024-1.4c.006-1.385,0-2.771,0-4.156q0-3.289,0-6.579c0-.081-.007-.162-.012-.261H35.462c0,.564-.009,1.112,0,1.659a.33.33,0,0,1-.239.362c-.357.159-.7.359-1.075.56V3.662q0-1.431,0-2.863c0-.543.248-.8.786-.8q7.115,0,14.23,0c.534,0,.779.243.779.768q0,5.711-.006,11.423a7.735,7.735,0,0,1-.11,1.147,2.959,2.959,0,0,1-.792,1.633q-2.067,2.154-4.149,4.3a2.794,2.794,0,0,1-2.13.849c-2.587-.012-5.175,0-7.762,0-.612,0-.845-.235-.845-.848,0-1.321,0-2.642,0-3.964a.474.474,0,0,1,.2-.418c.358-.285.7-.585,1.119-.933" transform="translate(-29.85 0)" fill="#fff" fill-rule="evenodd"/>
        <path id="Path_437" data-name="Path 437" d="M7.612,31.5a4.644,4.644,0,0,1,.774,9.231,4.494,4.494,0,0,1-2.757-.408.315.315,0,0,0-.408.052q-1.194,1.017-2.4,2.019A1.678,1.678,0,1,1,.658,39.829q1.2-1.015,2.406-2.015a.321.321,0,0,0,.132-.39A4.637,4.637,0,0,1,6.989,31.55c.226-.034.457-.038.622-.051m.048,1.569a3.08,3.08,0,1,0,3.075,3.084A3.093,3.093,0,0,0,7.66,33.068" transform="translate(0 -27.534)" fill="#fff" fill-rule="evenodd"/>
      </g>
    </g>
  </g>
</svg>
