<svg xmlns="http://www.w3.org/2000/svg" xmlns:xlink="http://www.w3.org/1999/xlink" width="40" height="40" viewBox="0 0 40 40">
  <defs>
    <clipPath id="clip-path">
      <rect id="Rectangle_93" data-name="Rectangle 93" width="29.289" height="28.686" fill="#63babf"/>
    </clipPath>
  </defs>
  <g id="icon-license" transform="translate(-262 -184)">
    <g id="Group_442" data-name="Group 442" transform="translate(269.573 188.5)">
      <g id="Group_441" data-name="Group 441" transform="translate(0 0)" clip-path="url(#clip-path)">
        <path id="Path_483" data-name="Path 483" d="M22.949,15.778v10.04H2.869V5.737h7.2a9.034,9.034,0,0,1,.689-2.868H2.869A2.877,2.877,0,0,0,0,5.737V25.818a2.877,2.877,0,0,0,2.869,2.868h20.08a2.877,2.877,0,0,0,2.869-2.868V18.646Zm1.865-5.9a6.443,6.443,0,1,0-5.465,3.026,6.359,6.359,0,0,0,3.428-1l4.475,4.475,2.037-2.037Zm-5.45.158a3.586,3.586,0,1,1,3.585-3.585,3.587,3.587,0,0,1-3.585,3.585M19.2,16.591l-5.62-5.625a.722.722,0,0,0-1.045,0l-5.62,5.625c-.288.3-.18.542.238.542H8.327v4.32c0,.313.014.566.578.566h2.727V17.685h2.854v4.333h2.864c.43,0,.441-.253.441-.566v-4.32h1.172c.418,0,.525-.244.238-.542" transform="translate(0 0)" fill="#63babf"/>
      </g>
    </g>
    <rect id="Rectangle_102" data-name="Rectangle 102" width="40" height="40" transform="translate(262 184)" fill="none"/>
  </g>
</svg>
