<svg xmlns="http://www.w3.org/2000/svg" xmlns:xlink="http://www.w3.org/1999/xlink" width="40" height="40" viewBox="0 0 40 40">
  <defs>
    <clipPath id="clip-path">
      <rect id="Rectangle_87" data-name="Rectangle 87" width="24.981" height="38.031" fill="#4bc2ff"/>
    </clipPath>
  </defs>
  <g id="icon-report" transform="translate(-160 -184)">
    <g id="Group_436" data-name="Group 436" transform="translate(167.509 184.985)">
      <g id="Group_435" data-name="Group 435" transform="translate(0 0)" clip-path="url(#clip-path)">
        <path id="Path_474" data-name="Path 474" d="M14.207,23.718a3.062,3.062,0,1,1,.956-5.956,5.543,5.543,0,0,0-2.847-.788h-1.17V8.712h1.17a13.744,13.744,0,0,1,7.069,1.958c.012-.092.032-.185.052-.279.027-.131.057-.262.075-.394a.929.929,0,0,1,.546-.74.365.365,0,0,0,.177-.19,2,2,0,0,0,.056-1.124.456.456,0,0,0-.153-.27.572.572,0,0,1-.283-.432,6.282,6.282,0,0,1-.193-1.062,2.85,2.85,0,0,1,.152-1.267,2.686,2.686,0,0,1,1.713-1.57.976.976,0,0,0,.111-.046c.179-.074.218-.163.045-.3a4.753,4.753,0,0,1-.52-.434A2.2,2.2,0,0,0,19.411,1.8a.411.411,0,0,1-.075-.01A2.532,2.532,0,0,1,17.386.564,1.272,1.272,0,0,0,15.558.257a5.387,5.387,0,0,0-.626.64c-.219.255-.207.262.058.488.122.1.24.211.359.318l-.046.044a1.223,1.223,0,0,0-.281-.2c-.127-.046-.326-.105-.4-.053a3.5,3.5,0,0,1-1.705.442,2,2,0,0,0-.587.148,10.388,10.388,0,0,0-1.2.559,2.424,2.424,0,0,0-.8.632A7.158,7.158,0,0,0,9,6a.336.336,0,0,1-.108.187c-.509.423-1.017.846-1.538,1.258a1.861,1.861,0,0,0-.582.8,3.237,3.237,0,0,1-.557,1.088,6.63,6.63,0,0,0-1.435,2.336,2.169,2.169,0,0,1-.342.792A7.365,7.365,0,0,0,3.5,13.738,16.668,16.668,0,0,1,1.63,16.811a7.756,7.756,0,0,0-.786,1.362,1.822,1.822,0,0,0-.207,1.539A11.833,11.833,0,0,1,.98,21.278c.048.381.275.828-.213,1.124a.114.114,0,0,0-.036.057C.508,22.971.282,23.483.064,24c-.094.222-.055.272.216.348a.436.436,0,0,1,.255.481c-.027.076-.188.112-.289.166-.085.045-.229.077-.241.136a.322.322,0,0,0,.089.293c.266.145.52.4.95.161.126.452.262.846.343,1.245a6.743,6.743,0,0,0,1,2.421.3.3,0,0,1,0,.413.222.222,0,0,0-.015.225,1.305,1.305,0,0,0,.4.426,1.525,1.525,0,0,1,.7.954c.016.038,0,.1.031.117.259.179.468.45.862.392.066-.01.158.055.224.1a3.407,3.407,0,0,0,.658.452,2.679,2.679,0,0,1,1.26.942,15.743,15.743,0,0,1,1.123,1.874,1.828,1.828,0,0,1,.243.955A8.318,8.318,0,0,0,8,37.724c.022.217.154.3.381.3.316,0,.633.013.946,0a.339.339,0,0,0,.24-.134c.186-.327.353-.663.52-1a.428.428,0,0,0,.051-.212c-.062-.847-.12-1.694-.2-2.542a1.915,1.915,0,0,1,.1-.942c.133-.325.252-.654.371-.984a7.066,7.066,0,0,1,1.166-2.3,2.189,2.189,0,0,1,.985-.858,1.024,1.024,0,0,0,.371-.194,6.882,6.882,0,0,0,1.334-1.91,25.9,25.9,0,0,0,1.421-3.074c.091-.235.172-.471.254-.707a3.045,3.045,0,0,1-1.737.543" transform="translate(0 0)" fill="#4bc2ff"/>
        <path id="Path_475" data-name="Path 475" d="M15.787,12.666V14.64A10.692,10.692,0,0,1,26.479,25.331h1.974A12.666,12.666,0,0,0,15.787,12.666m0,3.948v1.974a6.743,6.743,0,0,1,6.743,6.743H24.5a8.717,8.717,0,0,0-8.717-8.717m1.891,4.934A1.891,1.891,0,1,0,19.57,23.44a1.891,1.891,0,0,0-1.892-1.892" transform="translate(-3.471 -2.785)" fill="#4bc2ff"/>
      </g>
    </g>
    <rect id="Rectangle_97" data-name="Rectangle 97" width="40" height="40" transform="translate(160 184)" fill="none"/>
  </g>
</svg>
