<svg xmlns="http://www.w3.org/2000/svg" xmlns:xlink="http://www.w3.org/1999/xlink" width="40" height="40" viewBox="0 0 40 40">
  <defs>
    <clipPath id="clip-path">
      <rect id="Rectangle_95" data-name="Rectangle 95" width="37.181" height="26.477" fill="#4bc2ff"/>
    </clipPath>
  </defs>
  <g id="icon-road" transform="translate(-160 -288)">
    <g id="Group_448" data-name="Group 448" transform="translate(161.409 294.557)">
      <g id="Group_447" data-name="Group 447" transform="translate(0 0)" clip-path="url(#clip-path)">
        <path id="Path_489" data-name="Path 489" d="M16.07,5.562,14.322,7.974H9.3c.049.46.257.61.711.6,1.455-.031,2.911-.015,4.367-.008a.465.465,0,0,0,.525-.312,4.827,4.827,0,0,1,8.492-1.089,1.1,1.1,0,0,1,.1.226l.152-.068c.046-.229.092-.458.156-.774a5.448,5.448,0,0,1,.825.349,2.566,2.566,0,0,1,1.29,2.46,2.67,2.67,0,0,1-1.576,2.3,1.411,1.411,0,0,0-.573.539,4.924,4.924,0,0,1-4.705,2.63,4.846,4.846,0,0,1-4.244-3.373c-.127-.4-.3-.551-.744-.389a5.669,5.669,0,0,0,1.111,2.157H8.477c.1-.586.212-1.162.278-1.742.016-.146-.12-.31-.185-.465a1.443,1.443,0,0,0-.186.434A3.935,3.935,0,1,1,3.2,7.51c.125-.043.284-.048.37-.131a3.71,3.71,0,0,1,2.911-.853.7.7,0,0,0,.163-.042V5.605c0-1.638,0-3.276,0-4.914,0-.592.093-.68.706-.683C8.726,0,10.1.019,11.473,0a.686.686,0,0,1,.757.546c.511,1.536,1.055,3.061,1.563,4.6a.508.508,0,0,0,.593.426c.569-.03,1.142-.008,1.685-.008M4.431,13.86a2.611,2.611,0,0,0,2.646-2.582,2.644,2.644,0,0,0-2.62-2.671,2.672,2.672,0,0,0-2.633,2.621A2.641,2.641,0,0,0,4.431,13.86m8.52-8.467a.982.982,0,0,0-.025-.207c-.482-1.349-.959-2.7-1.465-4.043a.566.566,0,0,0-.433-.262C10.154.857,9.279.869,8.4.869H7.55V5.393ZM16.1,11a3.45,3.45,0,0,0,3.258,2.526A3.22,3.22,0,0,0,22.3,11.893c-.1,0-.2-.017-.295-.012a3,3,0,0,1-2.469-.785A.411.411,0,0,0,19.268,11c-1.04-.006-2.079,0-3.164,0m6.112-3c.015-.052.031-.1.045-.154A3.522,3.522,0,0,0,16.505,8Z" transform="translate(-0.215 0)" fill="#4bc2ff"/>
        <path id="Path_490" data-name="Path 490" d="M28.432,35.448l.464-1.1c.632.693,1.251,1.406,1.869,2.12h5.972S32.719,23.687,5.148,24.723l-.593.163.967-.121,0,.255-1.459.075-.005-.073-2.2.6s19.221,3.589,19.106,10.843h8.575c-.37-.34-.746-.672-1.112-1.018M10.074,25.476l-3.028-.4.005-.367,3.063.181Zm4.478,1.218-2.976-.886.066-.7,3.034.723ZM18.911,28.6l-2.891-1.35.157-.934,2.97,1.209ZM23.1,31.214,20.329,29.4l.284-1.152L23.492,29.9Zm4.024,3.114c-.453-.334-.893-.7-1.34-1.045s-.892-.7-1.33-1.07l.446-1.353c.458.35.906.733,1.358,1.1s.9.737,1.348,1.128Z" transform="translate(-0.769 -10.186)" fill="#4bc2ff"/>
        <path id="Path_491" data-name="Path 491" d="M0,28.231s.288.051.794.151a68.951,68.951,0,0,1,10.193,2.827,22.469,22.469,0,0,1,5.229,2.657,6.875,6.875,0,0,1,1.6,1.573,2.771,2.771,0,0,1,.544,1.567,2.354,2.354,0,0,1-.059.515l.464.235a3.442,3.442,0,0,0,.084-.75,3.8,3.8,0,0,0-.884-2.355,12.274,12.274,0,0,0-4.361-3.1C8.065,28.912.065,27.5.057,27.5Z" transform="translate(0 -11.359)" fill="#4bc2ff"/>
        <path id="Path_492" data-name="Path 492" d="M33.278,24.846s.2.032.575.109a32.225,32.225,0,0,1,8.018,2.851c3.416,1.776,6.925,4.542,8.642,8.631l.413-.392a16.18,16.18,0,0,0-4.519-6.022c-5.534-4.711-13.062-5.9-13.077-5.906Z" transform="translate(-13.744 -9.96)" fill="#4bc2ff"/>
      </g>
    </g>
    <rect id="Rectangle_104" data-name="Rectangle 104" width="40" height="40" transform="translate(160 288)" fill="none"/>
  </g>
</svg>
